<?xml version="1.0" encoding="UTF-8"?>
<svg width="440px" height="170px" viewBox="0 0 440 170" version="1.1" xmlns="http://www.w3.org/2000/svg" xmlns:xlink="http://www.w3.org/1999/xlink">
    <title>编组 19</title>
    <defs>
        <linearGradient x1="28.4129177%" y1="5.45357978%" x2="74.6436272%" y2="85.6966357%" id="linearGradient-1">
            <stop stop-color="#C7D7FD" offset="0%"></stop>
            <stop stop-color="#DEE3FF" stop-opacity="0.536386735" offset="42.729775%"></stop>
            <stop stop-color="#C7D7FD" stop-opacity="0" offset="100%"></stop>
        </linearGradient>
    </defs>
    <g id="帮助-/-咨询-/-问题-/-私有-/-技术支持" stroke="none" stroke-width="1" fill="none" fill-rule="evenodd">
        <g id="5" transform="translate(-740.000000, -90.000000)">
            <g id="编组-19" transform="translate(740.000000, 90.000000)">
                <rect id="矩形" fill="#D8D8D8" opacity="0" x="0" y="0" width="440" height="170"></rect>
                <g id="编组-12" transform="translate(1.000000, 28.000000)">
                    <circle id="椭圆形" fill="url(#linearGradient-1)" cx="110.305182" cy="66" r="66"></circle>
                    <path d="M37.9482224,63.3361407 L59.5134056,99.489536 C60.4187608,101.007337 59.9222751,102.971694 58.4044738,103.877049 C57.9087857,104.172723 57.3423569,104.328827 56.7651832,104.328827 L13.6348168,104.328827 C11.8675056,104.328827 10.4348168,102.896138 10.4348168,101.128827 C10.4348168,100.551653 10.5909208,99.9852241 10.8865944,99.489536 L32.4517776,63.3361407 C33.3571328,61.8183393 35.3214892,61.3218536 36.8392906,62.2272088 C37.2951928,62.4991505 37.6762807,62.8802384 37.9482224,63.3361407 Z" id="三角形" fill="#00B5FF" opacity="0.149999991" transform="translate(35.200000, 81.528827) rotate(-30.000000) translate(-35.200000, -81.528827) "></path>
                </g>
                <path d="M352.924751,61.6753011 L363.339085,78.9333401 C364.480469,80.8247777 363.872431,83.2833659 361.980994,84.4247506 C361.357335,84.8010966 360.642748,85 359.914334,85 L339.085666,85 C336.876527,85 335.085666,83.209139 335.085666,81 C335.085666,80.271586 335.284569,79.5569992 335.660915,78.9333401 L346.075249,61.6753011 C347.216634,59.7838635 349.675222,59.1758256 351.56666,60.3172103 C352.122934,60.6528932 352.589068,61.1190265 352.924751,61.6753011 Z" id="三角形" fill="#00B5FF" opacity="0.149999991" transform="translate(349.500000, 70.500000) rotate(-119.000000) translate(-349.500000, -70.500000) "></path>
            </g>
        </g>
    </g>
</svg>