<?xml version="1.0" encoding="UTF-8"?>
<svg width="35px" height="35px" viewBox="0 0 35 35" version="1.1" xmlns="http://www.w3.org/2000/svg" xmlns:xlink="http://www.w3.org/1999/xlink">
    <title>星形</title>
    <g id="定价" stroke="none" stroke-width="1" fill="none" fill-rule="evenodd" opacity="0.200000003">
        <g id="0.14-下单成功" transform="translate(-1430.000000, -237.000000)" fill="#35D4D8">
            <path d="M1447.5,264.25 L1437.22084,267.260697 C1436.1608,267.571174 1435.04978,266.963537 1434.7393,265.9035 C1434.63179,265.536431 1434.63179,265.146231 1434.7393,264.779161 L1437.75,254.5 L1437.75,254.5 L1434.7393,244.220839 C1434.42883,243.160802 1435.03646,242.049781 1436.0965,241.739303 C1436.46357,241.631791 1436.85377,241.631791 1437.22084,241.739303 L1447.5,244.75 L1447.5,244.75 L1457.77916,241.739303 C1458.8392,241.428826 1459.95022,242.036463 1460.2607,243.0965 C1460.36821,243.463569 1460.36821,243.853769 1460.2607,244.220839 L1457.25,254.5 L1457.25,254.5 L1460.2607,264.779161 C1460.57117,265.839198 1459.96354,266.950219 1458.9035,267.260697 C1458.53643,267.368209 1458.14623,267.368209 1457.77916,267.260697 L1447.5,264.25 L1447.5,264.25 Z" id="星形" transform="translate(1447.500000, 254.500000) rotate(45.000000) translate(-1447.500000, -254.500000) "></path>
        </g>
    </g>
</svg>