<?xml version="1.0" encoding="UTF-8"?>
<svg width="374px" height="70px" viewBox="0 0 374 70" version="1.1" xmlns="http://www.w3.org/2000/svg" xmlns:xlink="http://www.w3.org/1999/xlink">
    <title>矩形</title>
    <defs>
        <path d="M20,0 L354,0 C365.045695,-2.02906125e-15 374,8.954305 374,20 L374,70 L374,70 L0,70 L0,20 C-1.3527075e-15,8.954305 8.954305,2.02906125e-15 20,0 Z" id="path-1"></path>
        <linearGradient x1="50%" y1="66.1122623%" x2="57.0493342%" y2="34.3155899%" id="linearGradient-3">
            <stop stop-color="#FFFFFF" offset="0%"></stop>
            <stop stop-color="#FFFFFF" stop-opacity="0" offset="100%"></stop>
        </linearGradient>
        <filter x="0.0%" y="0.0%" width="100.0%" height="100.0%" filterUnits="objectBoundingBox" id="filter-4">
            <feGaussianBlur stdDeviation="0" in="SourceGraphic"></feGaussianBlur>
        </filter>
    </defs>
    <g id="定价" stroke="none" stroke-width="1" fill="none" fill-rule="evenodd">
        <g id="0.01" transform="translate(-360.000000, -800.000000)">
            <g id="矩形" transform="translate(360.000000, 800.000000)">
                <mask id="mask-2" fill="white">
                    <use xlink:href="#path-1"></use>
                </mask>
                <use id="蒙版" fill="#25CAA0" xlink:href="#path-1"></use>
                <path d="M0,-10 L159,-10 C132.775989,5.4015143 113.605957,18.4015143 101.489906,29 C89.3738538,39.5984857 74.210552,53.2651524 56,70 L0,70 L0,-10 Z" fill="url(#linearGradient-3)" opacity="0.200000003" style="mix-blend-mode: overlay;" filter="url(#filter-4)" mask="url(#mask-2)"></path>
            </g>
        </g>
    </g>
</svg>